<svg xmlns="http://www.w3.org/2000/svg" viewBox="0 0 36 36"><clipPath id="h"><path d="M35.885 11.833c0-5.45-4.418-9.868-9.867-9.868-3.308 0-6.227 1.633-8.018 4.129-1.791-2.496-4.71-4.129-8.017-4.129-5.45 0-9.868 4.417-9.868 9.868 0 .772.098 1.52.266 2.241C1.751 22.587 11.216 31.568 18 34.034c6.783-2.466 16.249-11.447 17.617-19.959.17-.721.268-1.469.268-2.242z"/></clipPath><g clip-path="url(#h)"><path fill="#EEE" d="M0 1.95h36v13.4H0z"/><path fill="#6E0070" d="M0 15.31875h36v5.4H0z"/><path fill="#D2D2D2" d="M0 20.66625h36v13.4H0z"/><path d="M0 4.9925l17.5 13-17.5 13z"/></g></svg>
