<svg xmlns="http://www.w3.org/2000/svg" viewBox="0 0 36 36"><clipPath id="f"><path d="M0 27c0 2.209 1.791 4 4 4h28c2.209 0 4-1.791 4-4V9c0-2.209-1.791-4-4-4H4C1.791 5 0 6.791 0 9z"/></clipPath><path fill="#8A1E04" clip-path="url(#f)" d="M0 27.286h36v3.714H0z"/><path fill="#C54E54" clip-path="url(#f)" d="M0 23.571h36v3.714H0z"/><path fill="#E4ACCF" d="M0 19.857h36v3.714H0z"/><path fill="#EDEDEB" d="M0 16.143h36v3.714H0z"/><path fill="#D063A6" d="M0 12.429h36v3.714H0z"/><path fill="#B75592" clip-path="url(#f)" d="M0 8.714h36v3.714H0z"/><path fill="#A40061" clip-path="url(#f)" d="M0 5h36v3.714H0z"/></svg>
