<svg xmlns="http://www.w3.org/2000/svg" viewBox="0 0 36 36"><clipPath id="h"><path d="M35.885 11.833c0-5.45-4.418-9.868-9.867-9.868-3.308 0-6.227 1.633-8.018 4.129-1.791-2.496-4.71-4.129-8.017-4.129-5.45 0-9.868 4.417-9.868 9.868 0 .772.098 1.52.266 2.241C1.751 22.587 11.216 31.568 18 34.034c6.783-2.466 16.249-11.447 17.617-19.959.17-.721.268-1.469.268-2.242z"/></clipPath><g clip-path="url(#h)"><path fill="#A40061" d="M0 1.95h36v4.6H0z"/><path fill="#B75592" d="M0 6.53357h36v4.6H0z"/><path fill="#D063A6" d="M0 11.11714h36v4.6H0z"/><path fill="#EDEDEB" d="M0 15.70071h36v4.6H0z"/><path fill="#E4ACCF" d="M0 20.28429h36v4.6H0z"/><path fill="#C54E54" d="M0 24.86786h36v4.6H0z"/><path fill="#8A1E04" d="M0 29.45143h36v4.6H0z"/></g></svg>
