<svg enable-background="new 0 0 128 128" viewBox="0 0 128 128" xmlns="http://www.w3.org/2000/svg"><linearGradient id="b" x1="-153" x2="-85.917" y1="-607.79" y2="-607.79" gradientUnits="userSpaceOnUse"><stop stop-color="#fff" stop-opacity="0" offset="0"/><stop stop-opacity=".2867" offset=".2869"/><stop offset=".5251"/><stop stop-opacity=".2492" offset=".7529"/><stop stop-color="#fff" stop-opacity="0" offset="1"/></linearGradient><rect x="-153" y="-651.76" width="67.08" height="87.93" fill="url(#b)" opacity=".2"/><path d="M4 20.8c40-24.1 80 24.1 120 0v12.34c-40 24.1-80-24.1-120 0z"/><path d="M4 33.14c40-24.1 80 24.1 120 0v12.35c-40 24.1-80-24.1-120 0z" fill="#B9B9B9"/><path d="M4 45.49c40-24.1 80 24.1 120 0v12.34c-40 24.1-80-24.1-120 0z" fill="#FFF"/><path d="M4 57.83c40-24.1 80 24.1 120 0v12.34c-40 24.1-80-24.1-120 0z" fill="#B8F483"/><path d="M4 70.17c40-24.1 80 24.1 120 0v12.34c-40 24.1-80-24.1-120 0z" fill="#FFF"/><path d="M4 82.51c40-24.1 80 24.1 120 0v12.35c-40 24.1-80-24.1-120 0z" fill="#B9B9B9"/><path d="M4 94.86c40-24.1 80 24.1 120 0v12.34c-40 24.1-80-24.1-120 0z"/><path d="M8 22.6256c37.3333-18.1446 74.6667 22.4933 112 4.3487v78.4c-37.3333 18.1446-74.6667-22.4933-112-4.3487zM124 20.8c-40 24.1-80-24.1-120 0v86.4c40-24.1 80 24.1 120 0z" fill="#424242" opacity=".2"/><linearGradient id="a" x1="5.3703" x2="122.37" y1="22.659" y2="105.16" gradientUnits="userSpaceOnUse"><stop stop-color="#fff" stop-opacity="0" offset="0"/><stop stop-color="#C8C8C8" stop-opacity=".1646" offset=".1646"/><stop stop-color="#828282" stop-opacity=".3934" offset=".3934"/><stop stop-color="#4A4A4A" stop-opacity=".5997" offset=".5997"/><stop stop-color="#222" stop-opacity=".7759" offset=".7759"/><stop stop-color="#090909" stop-opacity=".9151" offset=".9151"/><stop offset="1"/></linearGradient><path d="M4 20.8c40-24.1 80 24.1 120 0v86.4c-40 24.1-80-24.1-120 0z" fill="url(#a)" opacity=".3"/></svg>
