<svg enable-background="new 0 0 128 128" viewBox="0 0 128 128" xmlns="http://www.w3.org/2000/svg"><linearGradient id="b" x1="-153" x2="-85.917" y1="-607.79" y2="-607.79" gradientUnits="userSpaceOnUse"><stop stop-color="#fff" stop-opacity="0" offset="0"/><stop stop-opacity=".2867" offset=".2869"/><stop offset=".5251"/><stop stop-opacity=".2492" offset=".7529"/><stop stop-color="#fff" stop-opacity="0" offset="1"/></linearGradient><rect x="-153" y="-651.76" width="67.08" height="87.93" fill="url(#b)" opacity=".2"/><path d="M4 20.8c40 -24.1 80 24.1 120 0v21.6c-40 24.1 -80 -24.1 -120 0z" fill="#FFF430"/><path d="M4 42.4c40 -24.1 80 24.1 120 0v21.6c-40 24.1 -80 -24.1 -120 0z" fill="#FFF"/><path d="M4 64c40 -24.1 80 24.1 120 0v21.6c-40 24.1 -80 -24.1 -120 0z" fill="#9C59D1"/><path d="M4 85.6c40 -24.1 80 24.1 120 0v21.6c-40 24.1 -80 -24.1 -120 0z"/><path d="m120 26.98v5.44 4.72 4.48s0 3.06 0 4.72v5.44 5.33s0 3.2 0 4.69v4.37 4.37 4.69s0 3.41 0 5.33v5.44s0 3.21 0 4.72v4.48 4.72s0 3.45 0 5.44c-1.87 0.91-3.69 1.66-5.49 2.27-1.79 0.61-3.55 1.09-5.27 1.45s-3.42 0.63-5.08 0.8-3.3 0.26-4.9 0.28-3.19-0.03-4.75-0.14-3.09-0.27-4.61-0.47-3.01-0.45-4.49-0.72-2.95-0.59-4.4-0.92-2.89-0.69-4.32-1.06-2.85-0.77-4.26-1.17-2.82-0.81-4.22-1.23l-4.2-1.26c-1.4-0.42-2.8-0.85-4.2-1.26s-2.81-0.83-4.22-1.23-2.83-0.79-4.26-1.17c-1.43-0.37-2.87-0.73-4.32-1.06s-2.92-0.64-4.4-0.92-2.98-0.52-4.49-0.72c-1.52-0.2-3.05-0.36-4.61-0.47s-3.14-0.16-4.75-0.14-3.24 0.1-4.9 0.28c-1.66 0.17-3.35 0.43-5.08 0.8-1.72 0.37-3.48 0.84-5.27 1.45s-3.62 1.36-5.49 2.27v-5.44-4.72-4.48-4.72-5.44-5.33s0-3.2 0-4.69 0-2.93 0-4.37v-4.37s0-3.04 0-4.69 0-3.41 0-5.33v-5.43-4.72s0-2.97 0-4.48v-4.72-5.43c1.87-0.91 3.69-1.66 5.49-2.27s3.55-1.09 5.27-1.45c1.72-0.37 3.42-0.63 5.08-0.8s3.3-0.26 4.9-0.28c1.61-0.02 3.19 0.03 4.75 0.14s3.09 0.27 4.61 0.47 3.01 0.45 4.49 0.72c1.48 0.28 2.95 0.59 4.4 0.92s2.89 0.69 4.32 1.06 2.85 0.77 4.26 1.17 2.82 0.81 4.22 1.23 2.8 0.84 4.2 1.26 2.8 0.85 4.2 1.26c1.4 0.42 2.81 0.83 4.22 1.23s2.83 0.79 4.26 1.17c1.43 0.37 2.87 0.73 4.32 1.06s2.92 0.64 4.4 0.92 2.98 0.52 4.49 0.72c1.52 0.2 3.05 0.36 4.61 0.47s3.14 0.16 4.75 0.14 3.24-0.1 4.9-0.28c1.66-0.17 3.35-0.43 5.08-0.8 1.72-0.37 3.48-0.84 5.27-1.45s3.62-1.38 5.49-2.29m4-6.18c-40 24.1 -80 -24.1 -120 0v86.4c40-24.1 80 24.1 120 0z" fill="#424242" opacity=".2"/><linearGradient id="a" x1="5.3703" x2="122.37" y1="22.659" y2="105.16" gradientUnits="userSpaceOnUse"><stop stop-color="#fff" stop-opacity="0" offset="0"/><stop stop-color="#C8C8C8" stop-opacity=".1646" offset=".1646"/><stop stop-color="#828282" stop-opacity=".3934" offset=".3934"/><stop stop-color="#4A4A4A" stop-opacity=".5997" offset=".5997"/><stop stop-color="#222" stop-opacity=".7759" offset=".7759"/><stop stop-color="#090909" stop-opacity=".9151" offset=".9151"/><stop offset="1"/></linearGradient><path d="M4 20.8c40 -24.1 80 24.1 120 0v86.4c-40 24.1 -80 -24.1 -120 0z" fill="url(#a)" opacity=".3"/></svg>
